<?xml version="1.0" encoding="UTF-8"?>
<svg version="1.1" xmlns="http://www.w3.org/2000/svg" width="512" height="512">
<path d="M0 0 C1.05207138 0.00031723 1.05207138 0.00031723 2.12539673 0.00064087 C27.23453507 0.07600507 52.5154 6.53513166 70.84423828 24.77490234 C79.4375 33.64189046 79.4375 33.64189046 79.4375 36.375 C80.48164062 36.70564453 80.48164062 36.70564453 81.546875 37.04296875 C95.29535478 43.37841686 105.42938623 59.61557809 111.15625 72.8828125 C114.16619393 81.08674503 116.66318456 89.53039435 116.375 98.33203125 C115.76445382 106.58200122 115.76445382 106.58200122 118.68164062 113.97216797 C122.16750997 116.98200769 126.22558641 119.00231945 130.28076172 121.13671875 C134.01643193 123.28153642 137.26008719 125.99972941 140.5625 128.75 C141.22636719 129.2972876 141.89023437 129.8445752 142.57421875 130.40844727 C151.80386522 138.08963957 160.86447185 146.02008287 168.4375 155.375 C169.34894285 156.47397118 170.26040281 157.57292816 171.171875 158.671875 C207.53011749 202.88025925 226.08524639 259.51343986 220.71484375 316.82128906 C216.6966211 353.82006448 204.75088222 391.18371754 182.4375 421.375 C181.67050781 422.42429687 180.90351563 423.47359375 180.11328125 424.5546875 C172.94992329 434.18821787 164.9312487 442.8948413 156.4375 451.375 C155.75171875 452.1071875 155.0659375 452.839375 154.359375 453.59375 C126.48310831 482.87385745 86.55296675 501.32465981 47.4375 509.375 C46.7043457 509.53726074 45.97119141 509.69952148 45.21582031 509.86669922 C19.81626702 515.30946064 -11.23477119 515.02481981 -36.5625 509.375 C-37.37122559 509.20339355 -38.17995117 509.03178711 -39.01318359 508.85498047 C-67.4520485 502.7127126 -94.87002431 491.36778764 -118.5625 474.375 C-119.14918457 473.95508789 -119.73586914 473.53517578 -120.34033203 473.10253906 C-130.5364427 465.71288262 -139.67655007 457.27519024 -148.5625 448.375 C-149.2946875 447.68921875 -150.026875 447.0034375 -150.78125 446.296875 C-188.87254464 410.03187531 -208.70219033 355.33087361 -210.41967773 303.58325195 C-211.75394339 248.04284558 -192.53210269 194.85726237 -155.5625 153.375 C-155.09424805 152.84503418 -154.62599609 152.31506836 -154.14355469 151.76904297 C-148.62959009 145.54656963 -143.02754802 139.62717469 -136.5625 134.375 C-136.0473584 133.94751465 -135.5322168 133.5200293 -135.00146484 133.07958984 C-127.97767553 127.25435902 -120.83471618 121.70514607 -113.25 116.625 C-112.6098999 116.19469482 -111.9697998 115.76438965 -111.31030273 115.32104492 C-106.82146862 112.375 -106.82146862 112.375 -104.5625 112.375 C-102.38151631 98.36279419 -102.38151631 98.36279419 -105.97021484 85.38818359 C-108.99516373 82.85296478 -112.24226086 81.38904688 -115.890625 79.953125 C-119.82961965 78.26019539 -121.33171726 76.97857211 -123.5625 73.375 C-124.27734375 71.34765625 -124.27734375 71.34765625 -124.5 69.4375 C-124.59152344 68.80972656 -124.68304688 68.18195313 -124.77734375 67.53515625 C-124.37257576 63.46539813 -122.79677689 60.54181116 -119.82055664 57.72827148 C-117.63099592 55.94273839 -115.39572215 54.24356913 -113.125 52.5625 C-111.90611084 51.63848389 -111.90611084 51.63848389 -110.66259766 50.69580078 C-108.30390151 48.91123325 -105.93448753 47.14184068 -103.5625 45.375 C-102.46403017 44.5466507 -101.36625444 43.7173792 -100.26953125 42.88671875 C-98.38796203 41.46710722 -96.50125344 40.05428087 -94.609375 38.6484375 C-92.31680553 36.93782797 -90.03771749 35.2139785 -87.765625 33.4765625 C-61.01922985 13.07956554 -34.35570884 -0.09593306 0 0 Z " fill="#FDD8C8" transform="translate(250.5625,-0.375)"/>
<path d="M0 0 C1.0546875 1.8984375 1.0546875 1.8984375 1.875 4.375 C7.6829326 20.05641802 17.00427855 30.81551436 32.06787109 38.16503906 C39.81521554 41.51301961 46.97772874 42.49687215 55.375 42.375 C56.38796143 42.36484863 57.40092285 42.35469727 58.44458008 42.34423828 C65.64128037 42.19492194 72.24217307 41.64656301 79 39 C79.97582031 38.62101562 80.95164062 38.24203125 81.95703125 37.8515625 C96.77900134 31.26824844 106.24010885 19.94006594 112.15234375 5.109375 C112.83936498 3.09580126 113.43422224 1.0509444 114 -1 C122.12551133 0.52463499 129.6520781 3.28721181 137.375 6.1875 C138.72013828 6.68906313 140.06543604 7.19019871 141.41088867 7.69091797 C143.41893491 8.438246 145.42682493 9.1859563 147.43382263 9.93609619 C151.13935408 11.31884541 154.85435085 12.66532981 158.58984375 13.96484375 C191.38041962 25.41917613 216.29861407 46.24051716 231.953125 77.46484375 C237.62506675 89.48458947 242.94679094 104.58694041 241 118 C239.20790193 122.09870173 236.71311072 125.46031433 234 129 C233.23945313 130.0415625 232.47890625 131.083125 231.6953125 132.15625 C224.5579058 141.81477992 216.49462165 150.51896975 208 159 C207.31421875 159.7321875 206.6284375 160.464375 205.921875 161.21875 C178.04560831 190.49885745 138.11546675 208.94965981 99 217 C97.90026855 217.24339111 97.90026855 217.24339111 96.77832031 217.49169922 C71.37876702 222.93446064 40.32772881 222.64981981 15 217 C13.78691162 216.74259033 13.78691162 216.74259033 12.54931641 216.47998047 C-15.8895485 210.3377126 -43.30752431 198.99278764 -67 182 C-67.58668457 181.58008789 -68.17336914 181.16017578 -68.77783203 180.72753906 C-78.9739427 173.33788262 -88.11405007 164.90019024 -97 156 C-97.7321875 155.31421875 -98.464375 154.6284375 -99.21875 153.921875 C-106.55494888 146.93741168 -112.59686569 139.14529303 -118.55371094 130.97558594 C-119.80830914 129.26184376 -121.09296637 127.57018497 -122.3828125 125.8828125 C-127.15454458 119.2178426 -128.20697764 114.09441351 -127 106 C-125.13369276 96.20679835 -122.3210197 87.01076642 -118 78 C-117.72172363 77.41895508 -117.44344727 76.83791016 -117.15673828 76.23925781 C-99.70261753 40.34928102 -69.88936896 22.56126893 -33.5 9.6875 C-31.5205004 8.97944572 -29.54133165 8.27046578 -27.5625 7.56054688 C-23.14446117 5.97623578 -18.72437453 4.39800423 -14.29760742 2.83822632 C-12.77117438 2.28134426 -11.25507574 1.69523896 -9.7512207 1.07998657 C-3.68271961 -1.39153283 -3.68271961 -1.39153283 0 0 Z " fill="#D95F87" transform="translate(199,292)"/>
<path d="M0 0 C0.12117188 0.9178125 0.24234375 1.835625 0.3671875 2.78125 C1.38920061 10.63957155 1.38920061 10.63957155 3.0625 18.375 C3.371875 19.57125 3.68125 20.7675 4 22 C4.1959375 22.65226562 4.391875 23.30453125 4.59375 23.9765625 C5.10598094 26.18769271 5.34033894 27.74852699 5 30 C3.44969006 32.32122909 1.75192521 34.18675091 -0.23828125 36.140625 C-4.65220176 40.7992196 -4.45217346 45.74345169 -4.42944336 51.85302734 C-4.25543389 57.86488405 -3.20022719 62.47223216 1 67 C6.06139787 71.10147759 10.6156211 73.97832497 17.125 74.5625 C18.73375 74.706875 20.3425 74.85125 22 75 C22 69.39 22 63.78 22 58 C22.33 58 22.66 58 23 58 C23.0093457 58.61818604 23.01869141 59.23637207 23.02832031 59.87329102 C23.45442189 82.37939155 27.52535262 102.99072726 42 121 C42.74185547 121.57492188 43.48371094 122.14984375 44.24804688 122.7421875 C49.10571753 126.79221624 51.1565379 129.9656607 51.73071289 136.21533203 C51.99847851 142.52512812 51.78577958 148.81700069 51.5625 155.125 C51.5173037 157.34366878 51.47624819 159.56242599 51.43945312 161.78125 C51.34080296 167.18944525 51.19066876 172.59430779 51 178 C45.31413639 180.97596539 39.65477063 183.3339027 33.59375 185.42578125 C31.77864176 186.06444156 29.96353774 186.70311383 28.1484375 187.34179688 C25.33685787 188.32390064 22.52457175 189.30394722 19.71191406 190.28295898 C-2.41808804 197.60405803 -2.41808804 197.60405803 -22.75 208.75 C-23.35650391 209.16483643 -23.96300781 209.57967285 -24.58789062 210.00708008 C-30.91539856 214.44875875 -36.47782589 219.61189992 -42 225 C-42.98033203 225.88751953 -42.98033203 225.88751953 -43.98046875 226.79296875 C-62.79447632 244.22929156 -73.22199434 271.96755189 -75 297 C-102.25450854 267.09125191 -108.59347032 211.32091247 -106.8125 172.5 C-103.84035862 123.53871347 -84.56154546 77.5361398 -52 41 C-51.53174805 40.47003418 -51.06349609 39.94006836 -50.58105469 39.39404297 C-45.06709009 33.17156963 -39.46504802 27.25217469 -33 22 C-32.4848584 21.57251465 -31.9697168 21.1450293 -31.43896484 20.70458984 C-24.43158987 14.89297237 -17.30070269 9.34203344 -9.75 4.25 C-9.11827881 3.81969482 -8.48655762 3.38938965 -7.83569336 2.94604492 C-3.3712319 0 -3.3712319 0 0 0 Z " fill="#FEBACF" transform="translate(147,112)"/>
<path d="M0 0 C19.59841288 7.1684285 40.03750487 26.98750602 53 43 C53.91144285 44.09897118 54.82290281 45.19792816 55.734375 46.296875 C92.09261749 90.50525925 110.64774639 147.13843986 105.27734375 204.44628906 C101.64469992 237.8947525 91.11520325 267.59944258 75 297 C74.67 297 74.34 297 74 297 C73.93683594 296.08863281 73.87367188 295.17726563 73.80859375 294.23828125 C71.49604851 269.77398682 61.21629231 247.33867004 45 229 C44.53754883 228.47567383 44.07509766 227.95134766 43.59863281 227.41113281 C24.43392984 206.11257286 -1.04281805 197.03107333 -27.56884766 188.15917969 C-32.46600901 186.50472387 -37.33252825 184.77400515 -42.1875 183 C-42.96480469 182.72140137 -43.74210937 182.44280273 -44.54296875 182.15576172 C-49.7616847 180.2383153 -49.7616847 180.2383153 -52 178 C-52.27415466 176.00210571 -52.27415466 176.00210571 -52.30639648 173.52197266 C-52.32238388 172.59405914 -52.33837128 171.66614563 -52.35484314 170.71011353 C-52.36020584 169.70491669 -52.36556854 168.69971985 -52.37109375 167.6640625 C-52.38012222 166.63316498 -52.3891507 165.60226746 -52.39845276 164.54013062 C-52.41297946 162.35621048 -52.42184798 160.17224658 -52.42553711 157.98828125 C-52.43742855 154.64508731 -52.48658779 151.30374129 -52.53710938 147.9609375 C-52.54657367 145.84115486 -52.55380868 143.72136086 -52.55859375 141.6015625 C-52.57812607 140.60041412 -52.59765839 139.59926575 -52.61778259 138.56777954 C-52.57245789 131.60084327 -52.57245789 131.60084327 -49.58740234 128.46777344 C-48.73355957 127.9834082 -47.8797168 127.49904297 -47 127 C-33.33532599 112.43525764 -26.29918898 94.39279378 -23 75 C-21.515 74.88785156 -21.515 74.88785156 -20 74.7734375 C-12.10690037 74.04389043 -5.51324202 73.22111507 0 67 C5.12768821 60.16738775 6.67820957 54.50844737 6 46 C4.4919467 38.56660341 1.39459355 33.26306237 -5 29 C-4.47041037 24.44552916 -3.57190341 20.08516395 -2.5 15.625 C-1.26176903 10.40026931 -0.45310028 5.34658329 0 0 Z " fill="#FEBACF" transform="translate(366,112)"/>
<path d="M0 0 C1.05207138 0.00031723 1.05207138 0.00031723 2.12539673 0.00064087 C27.23453507 0.07600507 52.5154 6.53513166 70.84423828 24.77490234 C79.4375 33.64189046 79.4375 33.64189046 79.4375 36.375 C80.13359375 36.59542969 80.8296875 36.81585938 81.546875 37.04296875 C95.288428 43.37522493 105.44108496 59.61487425 111.15234375 72.8828125 C120.43530796 98.10764534 117.54780324 124.9106642 106.76953125 149.2421875 C103.1328151 156.84849999 98.8587795 163.89590986 93.4375 170.375 C93.1075 170.375 92.7775 170.375 92.4375 170.375 C92.45606049 169.76937729 92.47462097 169.16375458 92.4937439 168.53977966 C92.67498009 162.16245182 92.75485817 155.78923565 92.77929688 149.40942383 C92.80118779 147.03796136 92.84782517 144.66658004 92.92089844 142.29614258 C93.66344281 126.22019204 93.66344281 126.22019204 86.52798462 112.42481995 C84.14181496 110.04547331 81.67250882 107.83708711 79.05192566 105.71963501 C76.94269825 103.96288579 75.19167531 101.98047808 73.4375 99.875 C72.93089844 99.2871875 72.42429687 98.699375 71.90234375 98.09375 C71.17724609 97.24296875 71.17724609 97.24296875 70.4375 96.375 C69.86128906 95.7046875 69.28507813 95.034375 68.69140625 94.34375 C67.27058151 92.68994938 65.8535876 91.03285866 64.4375 89.375 C63.45652344 89.88289063 62.47554687 90.39078125 61.46484375 90.9140625 C35.88130862 104.02242631 10.51375545 112.04118619 -18.375 111.8125 C-19.62299881 111.80743942 -19.62299881 111.80743942 -20.89620972 111.80227661 C-33.48873315 111.72843655 -45.45227394 111.10550642 -57.5625 107.375 C-58.48949707 107.09108398 -59.41649414 106.80716797 -60.37158203 106.51464844 C-76.09891969 101.60679016 -76.09891969 101.60679016 -80.5625 99.375 C-80.8925 122.145 -81.2225 144.915 -81.5625 168.375 C-93.54104391 156.39645609 -101.32447203 139.18093227 -103.5625 122.375 C-103.66498047 121.6538501 -103.76746094 120.9327002 -103.87304688 120.18969727 C-104.45488057 115.4422353 -104.54229099 111.01588419 -104.1328125 106.24609375 C-102.7648753 95.38573301 -102.7648753 95.38573301 -105.96582031 85.43212891 C-108.99611449 82.88486527 -112.22869265 81.39012511 -115.890625 79.953125 C-119.82961965 78.26019539 -121.33171726 76.97857211 -123.5625 73.375 C-124.27734375 71.34765625 -124.27734375 71.34765625 -124.5 69.4375 C-124.59152344 68.80972656 -124.68304688 68.18195313 -124.77734375 67.53515625 C-124.37257576 63.46539813 -122.79677689 60.54181116 -119.82055664 57.72827148 C-117.63099592 55.94273839 -115.39572215 54.24356913 -113.125 52.5625 C-111.90611084 51.63848389 -111.90611084 51.63848389 -110.66259766 50.69580078 C-108.30390151 48.91123325 -105.93448753 47.14184068 -103.5625 45.375 C-102.46403017 44.5466507 -101.36625444 43.7173792 -100.26953125 42.88671875 C-98.38796203 41.46710722 -96.50125344 40.05428087 -94.609375 38.6484375 C-92.31680553 36.93782797 -90.03771749 35.2139785 -87.765625 33.4765625 C-61.01922985 13.07956554 -34.35570884 -0.09593306 0 0 Z " fill="#804F67" transform="translate(250.5625,-0.375)"/>
<path d="M0 0 C0 60.39 0 120.78 0 183 C-6.76190476 181.87301587 -6.76190476 181.87301587 -10.46875 179.6640625 C-11.28021484 179.18251709 -12.09167969 178.70097168 -12.92773438 178.20483398 C-13.77658203 177.68348877 -14.62542969 177.16214355 -15.5 176.625 C-16.38494141 176.08625244 -17.26988281 175.54750488 -18.18164062 174.99243164 C-32.61842269 166.05057777 -45.02677187 154.99238529 -57 143 C-57.7321875 142.31421875 -58.464375 141.6284375 -59.21875 140.921875 C-66.55494888 133.93741168 -72.59686569 126.14529303 -78.55371094 117.97558594 C-79.80830914 116.26184376 -81.09296637 114.57018497 -82.3828125 112.8828125 C-87.15454458 106.2178426 -88.20697764 101.09441351 -87 93 C-85.13369276 83.20679835 -82.3210197 74.01076642 -78 65 C-77.72172363 64.41895508 -77.44344727 63.83791016 -77.15673828 63.23925781 C-62.23214271 32.55060862 -36.98522967 12.79361332 -5.57421875 0.8125 C-3 0 -3 0 0 0 Z " fill="#BF5377" transform="translate(159,305)"/>
<path d="M0 0 C31.72196776 8.65144575 56.67240173 27.79168147 73.40625 55.99609375 C81.41271909 70.04206755 89.39519681 88.49749992 87 105 C85.20790193 109.09870173 82.71311072 112.46031433 80 116 C78.85917969 117.56234375 78.85917969 117.56234375 77.6953125 119.15625 C70.5579058 128.81477992 62.49462165 137.51896975 54 146 C53.31421875 146.7321875 52.6284375 147.464375 51.921875 148.21875 C40.61192183 160.09826916 26.98254777 169.52946414 13 178 C12.10023438 178.54785156 11.20046875 179.09570312 10.2734375 179.66015625 C4.56128134 183 4.56128134 183 0 183 C0 122.61 0 62.22 0 0 Z " fill="#BF5377" transform="translate(353,305)"/>
<path d="M0 0 C0.53820877 0.40806381 1.07641754 0.81612762 1.63093567 1.23655701 C2.34287582 1.77393997 3.05481598 2.31132294 3.78833008 2.86499023 C4.49153885 3.39680405 5.19474762 3.92861786 5.91926575 4.47654724 C21.62605832 15.97660134 38.92828552 21.41561547 58.3125 21.3125 C59.95835083 21.30512817 59.95835083 21.30512817 61.63745117 21.29760742 C82.61533974 20.99497457 99.10019751 13.07128749 116 1 C116.33 16.51 116.66 32.02 117 48 C116.34 48 115.68 48 115 48 C114.79375 49.258125 114.5875 50.51625 114.375 51.8125 C111.49179607 64.4985973 102.61916231 75.33802572 92.08203125 82.6953125 C76.69439988 92.33784323 59.07811472 94.47656887 41.26953125 91.34375 C38.33954709 90.4457892 35.73770174 89.37293699 33 88 C32.01257813 87.525625 31.02515625 87.05125 30.0078125 86.5625 C15.64577854 78.96121994 7.23017184 67.65708946 1 53 C0.63285889 52.15332764 0.26571777 51.30665527 -0.11254883 50.43432617 C-1.35782655 45.61525555 -1.13640639 41.08307325 -0.9765625 36.1328125 C-0.95153656 35.09808807 -0.92651062 34.06336365 -0.90072632 32.99728394 C-0.81883318 29.70617411 -0.72212446 26.41569207 -0.625 23.125 C-0.56672913 20.88804613 -0.50942654 18.65106681 -0.453125 16.4140625 C-0.31330023 10.94236379 -0.16132315 5.47110481 0 0 Z " fill="#FEC4B7" transform="translate(198,243)"/>
<path d="M0 0 C1.31838503 2.63677005 1.11990625 4.58816028 1.11352539 7.54199219 C1.11341965 9.30875305 1.11341965 9.30875305 1.11331177 11.11120605 C1.10556229 13.05936218 1.10556229 13.05936218 1.09765625 15.046875 C1.09573787 16.42321723 1.0942737 17.79956015 1.0932312 19.17590332 C1.09006575 22.14320155 1.08379052 25.11047146 1.07516479 28.07775879 C1.06167328 32.76635529 1.05575485 37.45494228 1.05102539 42.14355469 C1.03896621 52.94282385 1.01690777 63.74206838 0.99479675 74.5413208 C0.97463801 84.4370612 0.9565638 94.33279338 0.94658184 104.22854996 C0.94158772 108.89283479 0.93171059 113.55707654 0.91815186 118.22134399 C0.91071155 121.11895168 0.90738046 124.01655336 0.9051857 126.91416931 C0.90240983 128.90571847 0.89461027 130.89725861 0.88668823 132.88879395 C0.88658249 134.65555481 0.88658249 134.65555481 0.88647461 136.45800781 C0.884254 137.48597473 0.88203339 138.51394165 0.87974548 139.57305908 C0.83732808 142.00999049 0.83732808 142.00999049 2 144 C-1.98544997 142.36567879 -4.84491594 139.59476067 -7.9375 136.6875 C-8.44990234 136.21376953 -8.96230469 135.74003906 -9.49023438 135.25195312 C-12.73407529 132.23893189 -15.87432492 129.13583988 -19 126 C-19.7321875 125.31421875 -20.464375 124.6284375 -21.21875 123.921875 C-28.55494888 116.93741168 -34.59686569 109.14529303 -40.55371094 100.97558594 C-41.80830914 99.26184376 -43.09296637 97.57018497 -44.3828125 95.8828125 C-49.15454458 89.2178426 -50.20697764 84.09441351 -49 76 C-47.13369276 66.20679835 -44.3210197 57.01076642 -40 48 C-39.72172363 47.41895508 -39.44344727 46.83791016 -39.15673828 46.23925781 C-30.26416385 27.9539317 -16.90855535 11.49781764 0 0 Z " fill="#D95F87" transform="translate(121,322)"/>
<path d="M0 0 C6.21646543 4.14431029 11.31350839 7.78806646 16.4375 13 C17.40453857 13.98057373 17.40453857 13.98057373 18.39111328 14.98095703 C35.73969298 32.95299454 50.77381749 59.19934734 50.4609375 84.82421875 C49.62762944 90.56557006 46.46227449 94.4829107 43 99 C42.23945313 100.0415625 41.47890625 101.083125 40.6953125 102.15625 C33.56032663 111.81150399 25.50552827 120.53459215 17 129 C15.77990234 130.25490234 15.77990234 130.25490234 14.53515625 131.53515625 C13.71917969 132.36917969 12.90320313 133.20320312 12.0625 134.0625 C10.84240234 135.31740234 10.84240234 135.31740234 9.59765625 136.59765625 C7 139 7 139 1 143 C0.67 95.81 0.34 48.62 0 0 Z " fill="#D95F87" transform="translate(390,322)"/>
<path d="M0 0 C12.93022172 4.09457021 22.51259888 18.98103433 28.7421875 30.11328125 C39.60618643 51.81425424 39.76065872 77.22051855 32.3125 100.0625 C28.34777758 111.59267265 23.44060413 122.98715152 15 132 C14.67 132 14.34 132 14 132 C14.00888245 130.83283447 14.01776489 129.66566895 14.0269165 128.46313477 C14.10840975 117.4016329 14.16815956 106.34019287 14.20724869 95.27845764 C14.22802116 89.59306209 14.25614757 83.9079111 14.30175781 78.22265625 C14.34558721 72.72424963 14.36921461 67.22607654 14.37950897 61.72750854 C14.38683433 59.6417982 14.40113659 57.55609895 14.42292023 55.4704895 C14.57982275 39.80903091 13.65344945 25.26895452 5.875 11.25 C5.52824219 10.59257813 5.18148438 9.93515625 4.82421875 9.2578125 C3.89485748 7.49879155 2.94832963 5.74886763 2 4 C1.32656524 2.67007224 0.65582696 1.33869833 0 0 Z " fill="#5A2C42" transform="translate(330,36)"/>
<path d="M0 0 C7.89053461 3.15621384 15.3988305 7.19941525 23 11 C22.67 34.1 22.34 57.2 22 81 C5.123017 64.123017 -1.1032279 40.16119594 -1.13671875 16.8515625 C-1.13285156 15.95179687 -1.12898437 15.05203125 -1.125 14.125 C-1.12886719 13.20203125 -1.13273438 12.2790625 -1.13671875 11.328125 C-1.13542969 10.43867187 -1.13414062 9.54921875 -1.1328125 8.6328125 C-1.13168457 7.83762207 -1.13055664 7.04243164 -1.12939453 6.22314453 C-1.00163119 4.02802576 -0.60618659 2.10871064 0 0 Z " fill="#5A2C42" transform="translate(147,87)"/>
<path d="M0 0 C6.15959046 3.58115724 9.6760845 7.65868945 12.3125 14.3125 C13.81062815 22.34791462 13.66303915 28.39704714 9.62109375 35.66796875 C6.31730705 40.42064504 2.32669611 43.81079977 -2.8125 46.4375 C-7.54269652 47.27224056 -12.21075715 47.15339212 -17 47 C-18.17688942 34.8678683 -17.06803006 28.44248072 -9.21044922 18.65185547 C-7.09188391 15.76072741 -5.5559709 12.59394862 -4 9.375 C-3.443125 8.22773438 -2.88625 7.08046875 -2.3125 5.8984375 C-0.9502829 3.02296541 -0.9502829 3.02296541 0 0 Z " fill="#EDA0A0" transform="translate(360,140)"/>
<path d="M0 0 C5.24208645 2.30090178 8.80267066 6.39492207 12.8125 10.375 C13.61365234 11.14328125 14.41480469 11.9115625 15.24023438 12.703125 C15.99240234 13.44820313 16.74457031 14.19328125 17.51953125 14.9609375 C18.55750854 15.97873291 18.55750854 15.97873291 19.61645508 17.01708984 C21 19 21 19 20.96972656 20.98193359 C19.69909139 23.62621113 18.06159686 25.27535972 15.96484375 27.328125 C15.15595703 28.12734375 14.34707031 28.9265625 13.51367188 29.75 C12.2384668 30.9875 12.2384668 30.9875 10.9375 32.25 C9.65649414 33.51070313 9.65649414 33.51070313 8.34960938 34.796875 C6.23964588 36.87147597 4.12300292 38.93875832 2 41 C-1.46629835 39.51346494 -3.69022036 37.54277649 -6.328125 34.8671875 C-7.12734375 34.06152344 -7.9265625 33.25585938 -8.75 32.42578125 C-9.9875 31.16314453 -9.9875 31.16314453 -11.25 29.875 C-12.09046875 29.02550781 -12.9309375 28.17601562 -13.796875 27.30078125 C-15.86915683 25.20495077 -17.93662393 23.10459287 -20 21 C-15.76183463 15.93376232 -11.32591037 11.19961931 -6.625 6.5625 C-5.98433594 5.92634766 -5.34367188 5.29019531 -4.68359375 4.63476562 C-3.12469121 3.08749668 -1.56348584 1.54263508 0 0 Z " fill="#FEFAFB" transform="translate(255,371)"/>
<path d="M0 0 C0.33 0 0.66 0 1 0 C1.0233773 8.702876 1.04104244 17.40574085 1.05181217 26.10864162 C1.0569863 30.15162214 1.0639819 34.19458085 1.07543945 38.23754883 C1.08646611 42.15387747 1.09231777 46.07018541 1.09487724 49.9865284 C1.09669647 51.46571236 1.10024672 52.94489544 1.10573006 54.42407036 C1.14325338 64.98585144 0.72490716 75.46308319 0 86 C-8.30238989 86.77130972 -13.36561024 85.12491392 -20 80 C-25.34141699 74.5216236 -27.56929132 68.73264717 -27.5 61.125 C-27.49572998 60.41682129 -27.49145996 59.70864258 -27.48706055 58.97900391 C-27.29227509 53.00328883 -25.92532582 49.39212133 -22 45 C-21.52304688 44.40445313 -21.04609375 43.80890625 -20.5546875 43.1953125 C-19.40406579 41.76854158 -18.20698804 40.3794149 -17 39 C-14.31324454 43.03013319 -12.33769275 47.38376676 -10.2734375 51.75585938 C-7.62572814 57.18982103 -4.76693142 60.97742477 -1 66 C-0.67 44.22 -0.34 22.44 0 0 Z " fill="#E89D9E" transform="translate(169,101)"/>
<path d="M0 0 C3.36335594 1.45745424 5.54534005 3.31117854 8.109375 5.9140625 C8.86347656 6.67460937 9.61757813 7.43515625 10.39453125 8.21875 C11.17183594 9.0128125 11.94914062 9.806875 12.75 10.625 C13.54277344 11.42679687 14.33554687 12.22859375 15.15234375 13.0546875 C17.10614493 15.03202846 19.05512103 17.01388909 21 19 C19.54254576 22.36335594 17.68882146 24.54534005 15.0859375 27.109375 C14.32539063 27.86347656 13.56484375 28.61757813 12.78125 29.39453125 C11.9871875 30.17183594 11.193125 30.94914062 10.375 31.75 C9.57320313 32.54277344 8.77140625 33.33554687 7.9453125 34.15234375 C5.96797154 36.10614493 3.98611091 38.05512103 2 40 C-1.36335594 38.54254576 -3.54534005 36.68882146 -6.109375 34.0859375 C-6.86347656 33.32539063 -7.61757812 32.56484375 -8.39453125 31.78125 C-9.17183594 30.9871875 -9.94914063 30.193125 -10.75 29.375 C-11.54277344 28.57320313 -12.33554688 27.77140625 -13.15234375 26.9453125 C-15.10614493 24.96797154 -17.05512103 22.98611091 -19 21 C-17.54254576 17.63664406 -15.68882146 15.45465995 -13.0859375 12.890625 C-12.32539063 12.13652344 -11.56484375 11.38242187 -10.78125 10.60546875 C-9.9871875 9.82816406 -9.193125 9.05085938 -8.375 8.25 C-7.57320312 7.45722656 -6.77140625 6.66445313 -5.9453125 5.84765625 C-3.96797154 3.89385507 -1.98611091 1.94487897 0 0 Z " fill="#FEFEFE" transform="translate(255,450)"/>
<path d="M0 0 C4.28501096 2.26853522 7.26405481 4.40485096 9 9 C9.27836663 13.55509025 8.65131881 17.6766555 6.0625 21.5 C1.87475627 24.91856631 -1.66148335 25.50476359 -7 25 C-10.84626315 23.25169857 -12.51984036 21.6815169 -14.9375 18.25 C-16.27527893 14.15797034 -16.39125121 11.08943537 -15 7 C-10.73468615 1.69717738 -6.87119316 -0.82454318 0 0 Z " fill="#FEC5B7" transform="translate(209,186)"/>
<path d="M0 0 C3.13921957 2.60488433 5.69148327 4.79630908 6.2734375 8.953125 C6.45907936 13.15148712 6.45668199 16.07490427 3.75 19.4375 C0.36839813 22.5885381 -1.32460691 23.78147047 -5.875 24.375 C-10.80094062 23.78388713 -13.74139198 21.51032962 -16.875 17.75 C-18.38193315 14.06638564 -18.91293665 10.8635479 -18 7 C-16.0097088 3.64420157 -13.80081706 0.6434057 -10.04296875 -0.69921875 C-6.58586543 -1.20819954 -3.33089925 -0.98473014 0 0 Z " fill="#FEC5B7" transform="translate(315,203)"/>
<path d="M0 0 C3.375 0.3125 3.375 0.3125 6.5625 2.3125 C11.2399182 5.2100157 16.04119803 5.11180174 21.375 4.3125 C23.57903678 3.43391489 25.53912057 2.39841992 27.58984375 1.2109375 C30.25960383 -0.13270543 32.46047829 -0.10386024 35.375 0.3125 C37.375 2.3125 37.375 2.3125 37.5 5.625 C36.12062316 10.14629075 34.63374404 11.01771941 30.67578125 13.26953125 C22.62725165 16.91801581 14.39701709 18.11951409 5.93359375 15.07421875 C-2.02289567 11.21565649 -2.02289567 11.21565649 -4.625 7.3125 C-3.94066265 0.46912651 -3.94066265 0.46912651 0 0 Z " fill="#E35C7D" transform="translate(239.625,229.6875)"/>
<path d="M0 0 C2 2 2 2 2.25 5 C2 8 2 8 0 10 C-3.52366106 9.72894915 -6.55740428 9.16356798 -9.875 7.9375 C-17.08796247 5.77361126 -22.34261586 6.92736116 -29 10 C-32.02378784 10.41233471 -33.30235038 10.44184476 -35.875 8.8125 C-37 7 -37 7 -37.0625 4.5625 C-35.2334989 0.1513797 -31.52139097 -1.27552811 -27.375 -3.25 C-17.74353399 -5.39032578 -8.96557768 -4.00092555 0 0 Z " fill="#5F3146" transform="translate(317,132)"/>
<path d="M0 0 C2 2 2 2 2.25 5 C2 8 2 8 0 10 C-3.52366106 9.72894915 -6.55740428 9.16356798 -9.875 7.9375 C-17.08796247 5.77361126 -22.34261586 6.92736116 -29 10 C-32.02378784 10.41233471 -33.30235038 10.44184476 -35.875 8.8125 C-37 7 -37 7 -37.0625 4.5625 C-35.51889443 0.83968657 -33.53530969 -0.13592762 -30 -2 C-19.43422924 -5.52192359 -10.19223797 -4.41878672 0 0 Z " fill="#5E3145" transform="translate(228,132)"/>
<path d="M0 0 C2.75025718 1.7569363 3.35449951 2.98324911 5 6 C5 9.62302636 4.3955218 12.06063572 3 15.375 C-0.2909303 18.04888087 -3.83903669 18.40079331 -8 18 C-11.0625 16.125 -11.0625 16.125 -13 13 C-13.85694347 8.69232882 -13.72445749 5.29142421 -11.5625 1.4375 C-7.71374588 -0.72155719 -4.29560364 -0.99950991 0 0 Z " fill="#5E3045" transform="translate(305,154)"/>
<path d="M0 0 C3.62771552 0.88320639 4.97802955 2.36925437 6.94140625 5.47265625 C7.31494452 8.70232556 6.97518939 11.39427979 5.94140625 14.47265625 C3.22329768 17.75037541 1.63377721 18.36138235 -2.55859375 19.03515625 C-6.05859375 18.47265625 -6.05859375 18.47265625 -8.99609375 16.47265625 C-11.28906772 13.13742139 -11.8203311 11.3725857 -11.53515625 7.41015625 C-10.07286952 1.46512168 -5.58967271 -0.41365699 0 0 Z " fill="#5D3045" transform="translate(214.05859375,153.52734375)"/>
<path d="M0 0 C1.6640625 1.0234375 1.6640625 1.0234375 3 3 C3.29834873 5.76118825 3.41911153 8.24548016 3.375 11 C3.38660156 11.72445312 3.39820313 12.44890625 3.41015625 13.1953125 C3.38114832 18.4360788 3.38114832 18.4360788 1.6640625 20.9765625 C-0.96303424 22.59228866 -2.99725849 22.37534269 -6 22 C-7.6640625 20.9765625 -7.6640625 20.9765625 -9 19 C-9.29834873 16.23881175 -9.41911153 13.75451984 -9.375 11 C-9.38660156 10.27554688 -9.39820313 9.55109375 -9.41015625 8.8046875 C-9.38114832 3.5639212 -9.38114832 3.5639212 -7.6640625 1.0234375 C-5.03696576 -0.59228866 -3.00274151 -0.37534269 0 0 Z " fill="#EEA2A1" transform="translate(259,183)"/>
</svg>
